{"title":"47 Ronin 2013 1080p BRRip Xvid AC3 LKRG","uid":10187746,"size":2202455981,"categoryP":"video","categoryS":"hd___movies","magnet":"?xt=urn:btih:31022b2f1b6a035faa4c0388689eecff6df12a5e&amp;dn=47+Ronin+2013+1080p+BRRip+Xvid+AC3+LKRG&amp;tr=udp%3A%2F%2Ftracker.openbittorrent.com%3A80&amp;tr=udp%3A%2F%2Fopen.demonii.com%3A1337&amp;tr=udp%3A%2F%2Ftracker.coppersurfer.tk%3A6969&amp;tr=udp%3A%2F%2Fexodus.desync.com%3A6969","seeders":11,"leechers":0,"uploader":".BONE.","files":2,"time":1400602273,"description":"PLOT\n\nA band of samurai set out to avenge the death and dishonor of their master at the hands of a ruthless shogun.\n\n\nRuntime ..........: 1h 58mn\nFile Size ........: 2.05 GB\nSource ..........: 47.Ronin.2013.BluRay.1080p.AVC.DTS-HD.MA.\n5.1.REMUX-FraMeSToR 30 Gigs Thanks Again m8\nResolution .......: 1920 x 800 &lt;a href=&quot;\nhttp://www.imdb.com/title/tt1335975/&quot; rel=&quot;nofollow&quot; target=&quot;_NEW&quot;&gt;\nhttp://www.imdb.com/title/tt1335975/&lt;/a&gt;\nGenre ............: Action,Adventure,Fantasy\nLanguage .........: English\nSubtitles ........: None\nComplete name : 47 Ronin 2013 1080p BRRip Xvid AC3 LKRG47 Ronin 2013 1080p BRRip Xvid AC3 LKRG.avi\nFormat : AVI\nFormat/Info : Audio Video Interleave\nFormat profile : OpenDML\nFile size : 2.05 GiB\nDuration : 1h 58mn\nOverall bit rate : 2 474 Kbps\nWriting application : VirtualDubMod 1.5.10.2 (build 2540/release)\nWriting library : VirtualDubMod build 2540/release\nVideo\nID : 0\nFormat : MPEG-4 Visual\nFormat profile : Advanced Simple@L5\nFormat settings, BVOP : 2\nFormat settings, QPel : No\nFormat settings, GMC : No warppoints\nFormat settings, Matrix : Default (H.263)\nMuxing mode : Packed bitstream\nCodec ID : XVID\nCodec ID/Hint : XviD\nDuration : 1h 58mn\nBit rate : 2 013 Kbps\nWidth : 1 920 pixels\nHeight : 800 pixels\nDisplay aspect ratio : 2.40:1\nFrame rate : 23.976 fps\nColor space : YUV\nChroma subsampling : 4:2:0\nBit depth : 8 bits\nScan type : Progressive\nCompression mode : Lossy\nBits/(Pixel*Frame) : 0.055\nStream size : 1.67 GiB (81%)\nWriting library : XviD 1.2.1 (UTC 2008-12-04)\nAudio\nID : 1\nFormat : AC-3\nFormat/Info : Audio Coding 3\nMode extension : CM (complete main)\nFormat settings, Endianness : Big\nCodec ID : 2000\nDuration : 1h 58mn\nBit rate mode : Constant\nBit rate : 448 Kbps\nChannel(s) : 6 channels\nChannel positions : Front: L C R, Side: L R, LFE\nSampling rate : 48.0 KHz\nBit depth : 16 bits\nCompression mode : Lossy\nStream size : 380 MiB (18%)\nAlignment : Split accross interleaves\nInterleave, duration : 42 ms (1.00 video frame)\nInterleave, preload duration : 500 ms\n &lt;a href=&quot;\nhttp://i.imgur.com/mM2Z2C7.jpg&quot; rel=&quot;nofollow&quot; target=&quot;_NEW&quot;&gt;\nhttp://i.imgur.com/mM2Z2C7.jpg&lt;/a&gt; &lt;a href=&quot;\nhttp://i.imgur.com/X6bWBGB.jpg&quot; rel=&quot;nofollow&quot; target=&quot;_NEW&quot;&gt;\nhttp://i.imgur.com/X6bWBGB.jpg&lt;/a&gt; &lt;a href=&quot;\nhttp://i.imgur.com/1stVZnh.jpg&quot; rel=&quot;nofollow&quot; target=&quot;_NEW&quot;&gt;\nhttp://i.imgur.com/1stVZnh.jpg&lt;/a&gt; &lt;a href=&quot;\nhttp://i.imgur.com/RL6PKJ0.jpg&quot; rel=&quot;nofollow&quot; target=&quot;_NEW&quot;&gt;\nhttp://i.imgur.com/RL6PKJ0.jpg&lt;/a&gt; &lt;a href=&quot;\nhttp://i.imgur.com/x44Ay76.jpg&quot; rel=&quot;nofollow&quot; target=&quot;_NEW&quot;&gt;\nhttp://i.imgur.com/x44Ay76.jpg&lt;/a&gt; &lt;a href=&quot;\nhttp://i.imgur.com/yyeoDUh.jpg&quot; rel=&quot;nofollow&quot; target=&quot;_NEW&quot;&gt;\nhttp://i.imgur.com/yyeoDUh.jpg&lt;/a&gt;","torrent":{"xt":"urn:btih:31022b2f1b6a035faa4c0388689eecff6df12a5e","amp;dn":"47+Ronin+2013+1080p+BRRip+Xvid+AC3+LKRG","amp;tr":["udp%3A%2F%2Ftracker.openbittorrent.com%3A80","udp%3A%2F%2Fopen.demonii.com%3A1337","udp%3A%2F%2Ftracker.coppersurfer.tk%3A6969","udp%3A%2F%2Fexodus.desync.com%3A6969"],"infoHash":"31022b2f1b6a035faa4c0388689eecff6df12a5e","infoHashBuffer":{"type":"Buffer","data":[49,2,43,47,27,106,3,95,170,76,3,136,104,158,236,255,109,241,42,94]},"announce":[],"urlList":[]}}